<svg width="20" height="20" viewBox="0 0 20 20" fill="none" xmlns="http://www.w3.org/2000/svg">
<path d="M0.219962 0.219956C0.0931309 0.346823 0.0159744 0.514948 0.00248927 0.693832C-0.0109958 0.872716 0.0400838 1.05051 0.146462 1.19496L0.219962 1.28046L4.25496 5.31546C2.28787 6.69384 0.883543 8.7351 0.299462 11.065C0.256453 11.2561 0.289935 11.4564 0.392746 11.6232C0.495558 11.79 0.659537 11.9099 0.849616 11.9573C1.0397 12.0047 1.24078 11.9759 1.40988 11.877C1.57897 11.778 1.70265 11.6169 1.75446 11.428C2.27311 9.36012 3.55074 7.56309 5.33346 6.39396L7.14396 8.20446C6.4177 8.95941 6.01654 9.96913 6.02669 11.0167C6.03684 12.0642 6.45747 13.0659 7.19822 13.8067C7.93897 14.5474 8.94073 14.9681 9.98826 14.9782C11.0358 14.9884 12.0455 14.5872 12.8005 13.861L18.7195 19.78C18.8533 19.9132 19.0325 19.9911 19.2213 19.998C19.41 20.0049 19.5944 19.9404 19.7377 19.8172C19.8809 19.6941 19.9724 19.5214 19.9938 19.3338C20.0153 19.1461 19.9652 18.9573 19.8535 18.805L19.78 18.7195L13.6675 12.6055V12.604L12.4675 11.4055L9.59796 8.53596H9.59946L6.71946 5.65746V5.65596L5.58696 4.52496L1.28046 0.219956C1.13982 0.0793529 0.949085 0.000366211 0.750212 0.000366211C0.551339 0.000366211 0.360608 0.0793529 0.219962 0.219956ZM8.20446 9.26496L11.7385 12.8005C11.2664 13.2536 10.6356 13.5036 9.98131 13.4969C9.32704 13.4902 8.70145 13.2273 8.23879 12.7646C7.77612 12.302 7.51324 11.6764 7.50654 11.0221C7.49984 10.3678 7.74986 9.737 8.20296 9.26496H8.20446ZM9.99996 3.50046C8.99946 3.50046 8.02896 3.64746 7.11096 3.92496L8.34846 5.16096C10.4881 4.73714 12.7087 5.15171 14.5513 6.31896C16.3939 7.48621 17.7175 9.31687 18.2485 11.4325C18.3003 11.6214 18.4239 11.7825 18.593 11.8815C18.7621 11.9804 18.9632 12.0092 19.1533 11.9618C19.3434 11.9144 19.5074 11.7945 19.6102 11.6277C19.713 11.4609 19.7465 11.2606 19.7035 11.0695C19.1609 8.90689 17.9113 6.98758 16.1533 5.61628C14.3953 4.24498 12.2296 3.50029 9.99996 3.50046ZM10.195 7.01046L13.996 10.81C13.9473 9.8176 13.5312 8.87885 12.8286 8.1763C12.1261 7.47376 11.1873 7.05766 10.195 7.00896V7.01046Z" fill="#55A6AD"/>
</svg>
