<svg width="20" height="13" viewBox="0 0 20 13" fill="none" xmlns="http://www.w3.org/2000/svg">
<path d="M10.0001 4.00449C10.5254 4.00449 11.0456 4.10796 11.531 4.30901C12.0163 4.51005 12.4574 4.80473 12.8288 5.17621C13.2003 5.54769 13.495 5.9887 13.696 6.47406C13.8971 6.95943 14.0006 7.47964 14.0006 8.00499C14.0006 8.53034 13.8971 9.05055 13.696 9.53591C13.495 10.0213 13.2003 10.4623 12.8288 10.8338C12.4574 11.2052 12.0163 11.4999 11.531 11.701C11.0456 11.902 10.5254 12.0055 10.0001 12.0055C8.93906 12.0055 7.92152 11.584 7.17128 10.8338C6.42104 10.0835 5.99956 9.06599 5.99956 8.00499C5.99956 6.94399 6.42104 5.92645 7.17128 5.17621C7.92152 4.42597 8.93906 4.00449 10.0001 4.00449ZM10.0001 5.50449C9.33688 5.50449 8.70087 5.76793 8.23194 6.23687C7.763 6.7058 7.49956 7.34181 7.49956 8.00499C7.49956 8.66816 7.763 9.30417 8.23194 9.77311C8.70087 10.242 9.33688 10.5055 10.0001 10.5055C10.6632 10.5055 11.2992 10.242 11.7682 9.77311C12.2371 9.30417 12.5006 8.66816 12.5006 8.00499C12.5006 7.34181 12.2371 6.7058 11.7682 6.23687C11.2992 5.76793 10.6632 5.50449 10.0001 5.50449ZM10.0001 0.500488C14.6141 0.500488 18.5951 3.65049 19.7006 8.06499C19.727 8.16138 19.7339 8.26209 19.7209 8.36119C19.7078 8.46028 19.6751 8.55578 19.6246 8.64205C19.5741 8.72832 19.5069 8.80364 19.4269 8.86357C19.347 8.9235 19.2558 8.96684 19.1588 8.99103C19.0618 9.01523 18.961 9.01979 18.8622 9.00446C18.7635 8.98913 18.6687 8.95421 18.5837 8.90175C18.4986 8.8493 18.4248 8.78037 18.3668 8.69901C18.3087 8.61765 18.2675 8.5255 18.2456 8.42799C17.7814 6.5924 16.7181 4.96417 15.2239 3.80125C13.7298 2.63832 11.8903 2.00722 9.99697 2.00791C8.10361 2.00859 6.26461 2.64104 4.77133 3.80505C3.27804 4.96905 2.21586 6.59806 1.75306 8.43399C1.70357 8.62569 1.5803 8.79005 1.41012 8.89122C1.23994 8.99239 1.03665 9.02217 0.844603 8.97406C0.652553 8.92595 0.487317 8.80385 0.384932 8.6344C0.282546 8.46494 0.251317 8.26188 0.298056 8.06949C0.840599 5.90718 2.08989 3.98805 3.8476 2.61677C5.60531 1.2455 7.77072 0.500654 10.0001 0.500488Z" fill="#55A6AD"/>
</svg>
